<?xml version="1.0" encoding="iso-8859-1"?>
<!-- Generator: Adobe Illustrator 19.0.0, SVG Export Plug-In . SVG Version: 6.00 Build 0)  -->
<svg version="1.1" id="Layer_1" xmlns="http://www.w3.org/2000/svg" xmlns:xlink="http://www.w3.org/1999/xlink" x="0px" y="0px"
	 viewBox="0 0 480 480" style="enable-background:new 0 0 480 480;" xml:space="preserve">
<g>
	<g>
		<g>
			<path d="M419.382,0H121.714c-1.148,0-2.248,0.203-3.275,0.56C117.411,0.203,116.311,0,115.162,0H67.605c-5.522,0-10,4.477-10,10
				v366.499c0,0.309,0.02,0.614,0.047,0.918c-4.176,7.338-6.58,15.81-6.599,24.836l-0.433,22.445
				c-0.001,0.064-0.002,0.128-0.002,0.193c0,13.322,5.319,27.013,14.595,37.561C75.021,473.604,88.298,480,101.641,480h317.74
				c5.522,0,10-4.477,10-10V361.761V348.24V10C429.382,4.477,424.904,0,419.382,0z M126.001,20h283.381v328.239v3.521h-220h-63.381
				V20z M105.162,20v331.761h-3.521c-4.45,0-8.766,0.583-12.881,1.668c-3.919,0.62-7.7,1.987-11.154,3.68V20H105.162z M409.382,460
				h-307.74c-15.653,0-30.456-16.441-30.996-34.116h338.736V460z M409.383,405.885H70.988l0.065-3.337
				c0.001-0.065,0.002-0.129,0.002-0.193c0-13.789,9.169-25.471,21.727-29.281c8.001-0.805,20.988-1.261,22.544-1.313h6.389h67.668
				h220V405.885z"/>
			<path d="M375.259,253.529V64.116c0-5.523-4.478-10-10-10H175.837c-5.522,0-10,4.477-10,10v189.413c0,5.523,4.478,10,10,10
				h189.422C370.781,263.529,375.259,259.052,375.259,253.529z M355.259,243.529H185.837V74.116h169.422V243.529z"/>
			<path d="M361.714,307.645c0-5.523-4.477-10-10-10H189.381c-5.523,0-10,4.477-10,10s4.477,10,10,10h162.332
				C357.237,317.645,361.714,313.168,361.714,307.645z"/>
		</g>
	</g>
</g>
<g>
</g>
<g>
</g>
<g>
</g>
<g>
</g>
<g>
</g>
<g>
</g>
<g>
</g>
<g>
</g>
<g>
</g>
<g>
</g>
<g>
</g>
<g>
</g>
<g>
</g>
<g>
</g>
<g>
</g>
</svg>
