<?xml version="1.0" encoding="utf-8"?>
<!-- Uploaded to SVGRepo https://www.svgrepo.com -->
<!DOCTYPE svg PUBLIC "-//W3C//DTD SVG 1.1//EN" "http://www.w3.org/Graphics/SVG/1.1/DTD/svg11.dtd">
<svg width="1000px" height="1000px" viewBox="0 0 1000 1000" version="1.1" xmlns="http://www.w3.org/2000/svg" xmlns:xlink="http://www.w3.org/1999/xlink" x="0px" y="0px" enable-background="new 0 0 1000 1000" xml:space="preserve">
<metadata> Svg Vector Icons : http://www.onlinewebfonts.com/icon </metadata>
<g><g transform="translate(0.000000,511.000000) scale(0.100000,-0.100000)"><path d="M1017,4979.4c-60.4-16.1-155-54.3-211.3-84.5c-130.8-70.4-348.2-285.8-418.6-418.6c-124.8-231.5-116.7,44.3-116.7-4365.4c0-4407.7-8-4134,116.7-4365.4c68.4-130.8,287.8-350.2,418.6-418.6c231.5-124.8-24.2-116.7,4178.2-116.7c2717,0,3868.3,6,3944.7,22.1c261.7,54.4,557.5,275.7,684.3,513.2c122.8,229.4,116.7,14.1,116.7,3775.7c0,2900.2-4,3449.7-28.2,3504c-36.2,82.5-1893.9,1936.1-1970.3,1964.3c-38.3,16.1-1082.8,22.1-3330.9,20.1C1604.7,5009.6,1109.6,5005.6,1017,4979.4z M2886.8,2757.5V1107.1h2344.7h2344.7v1614.1v1616.1l774.9-774.9l774.9-774.9V-579.5c0-3731.4,10.1-3453.7-128.8-3552.3c-58.3-40.3-88.5-44.3-398.5-50.3l-338.1-6v2314.5V443H5000H1739.6v-2316.5v-2314.5l-340.1,6c-380.4,6-418.6,18.1-491.1,159c-32.2,64.4-34.2,295.9-30.2,4158.1l6,4089.7l42.3,56.4c92.6,126.8,88.6,126.8,1070.7,126.8h889.6V2757.5z M6972.4,3059.4V1710.9H5231.5H3490.6v1348.5v1348.5h1740.9h1740.9V3059.4z M7656.7-2173.5v-2012.6H5000H2343.4v2012.6v2012.6H5000h2656.7V-2173.5z"/><path d="M5805.1,3109.7v-795H6107h301.9v795v795H6107h-301.9V3109.7z"/><path d="M3651.6-1469v-301.9H5000h1348.4v301.9v301.9H5000H3651.6V-1469z"/><path d="M3651.6-2676.6v-301.9H5000h1348.4v301.9v301.9H5000H3651.6V-2676.6z"/></g></g>
</svg>