<?xml version="1.0" standalone="no"?>
<!DOCTYPE svg PUBLIC "-//W3C//DTD SVG 20010904//EN"
 "http://www.w3.org/TR/2001/REC-SVG-20010904/DTD/svg10.dtd">
<svg version="1.0" xmlns="http://www.w3.org/2000/svg"
 width="2000.000000pt" height="1000.000000pt" viewBox="0 0 2000.000000 1000.000000"
 preserveAspectRatio="xMidYMid meet">

<g transform="translate(0.000000,1000.000000) scale(0.100000,-0.100000)"
fill="#000000" stroke="none">
<path d="M9875 9688 c-50 -10 -107 -56 -129 -102 -15 -31 -16 -178 -16 -1669
0 -900 -4 -1638 -8 -1641 -5 -3 -40 10 -78 29 -80 40 -215 86 -329 112 -113
25 -404 25 -525 -1 -401 -86 -721 -319 -925 -673 -44 -76 -65 -100 -65 -72 0
18 -80 150 -138 228 -154 208 -407 390 -652 471 -259 86 -551 91 -815 15 -324
-94 -620 -324 -790 -614 -32 -54 -55 -76 -55 -53 0 19 -119 196 -180 267 -154
180 -382 330 -610 403 -119 38 -180 50 -300 60 -406 35 -791 -106 -1080 -397
-195 -196 -313 -417 -371 -693 -31 -147 -31 -382 -1 -525 42 -195 108 -349
215 -507 253 -370 666 -587 1117 -588 396 0 759 164 1024 461 48 55 131 171
182 257 9 16 16 9 51 -51 167 -286 419 -495 728 -605 162 -57 260 -73 450 -73
137 0 189 4 267 21 269 59 482 171 672 352 103 99 196 219 252 325 21 41 44
75 49 75 6 0 25 -28 42 -62 51 -103 150 -233 254 -333 194 -186 411 -301 669
-356 152 -32 403 -32 544 0 117 27 247 71 328 112 32 16 62 29 68 29 7 0 10
-491 10 -1537 l0 -1538 21 -34 c46 -76 119 -122 282 -180 155 -54 273 -74 447
-74 180 -1 290 17 445 70 298 103 555 307 718 571 l45 73 61 -89 c201 -293
503 -497 846 -571 446 -97 927 47 1247 373 79 81 140 156 189 235 29 48 34 52
43 37 199 -337 452 -551 781 -661 208 -70 479 -88 685 -45 258 53 459 154 659
331 50 43 93 79 96 79 3 0 5 -84 5 -187 0 -170 2 -191 21 -231 27 -55 84 -93
148 -100 86 -8 155 28 192 100 20 39 20 55 20 781 0 408 3 747 7 754 5 8 92
-85 253 -270 823 -948 1114 -1279 1142 -1299 26 -19 45 -23 104 -23 65 0 75 3
110 31 56 46 78 89 77 154 0 31 -7 68 -16 85 -9 17 -86 109 -170 206 -84 97
-253 290 -374 430 -206 237 -442 507 -808 928 -83 95 -154 179 -158 186 -7 11
459 398 1346 1119 94 76 182 153 195 172 56 79 31 207 -51 262 -52 34 -140 42
-189 17 -26 -14 -1133 -911 -1396 -1132 -29 -25 -57 -42 -62 -38 -7 3 -10 637
-10 1744 0 1239 -4 1746 -11 1767 -14 35 -44 69 -87 95 -64 40 -182 20 -235
-38 -51 -56 -48 43 -48 -1883 l0 -1791 -92 82 c-212 188 -452 304 -708 345
-125 20 -385 15 -495 -10 -357 -80 -676 -299 -862 -592 -25 -41 -47 -73 -49
-71 -1 1 -22 37 -48 80 -156 266 -413 480 -699 582 -171 61 -281 80 -472 80
-249 0 -406 -38 -626 -152 -231 -119 -427 -309 -564 -548 -9 -15 -18 -5 -67
66 -201 301 -489 499 -843 579 -132 30 -359 37 -495 15 -58 -10 -120 -20 -137
-22 l-33 -5 0 3171 c0 3421 3 3208 -48 3264 -41 46 -122 69 -187 55z m-5574
-3633 c400 -70 709 -365 795 -760 23 -107 23 -293 0 -400 -76 -346 -327 -623
-662 -728 -398 -126 -830 19 -1083 362 -55 73 -115 198 -147 306 -25 83 -28
104 -28 260 0 156 3 177 27 260 70 234 206 419 404 552 202 135 458 190 694
148z m2369 -5 c348 -37 629 -233 780 -545 74 -153 94 -239 95 -420 0 -116 -4
-167 -19 -225 -92 -360 -356 -630 -703 -721 -99 -26 -292 -36 -393 -20 -137
22 -277 75 -387 148 -78 51 -206 174 -258 248 -347 488 -179 1166 355 1435
116 59 227 89 380 103 19 2 40 4 45 5 6 1 53 -3 105 -8z m2560 -11 c161 -29
357 -124 468 -228 l32 -30 0 -695 0 -694 -25 -30 c-58 -70 -234 -171 -369
-212 -162 -50 -391 -52 -549 -6 -277 82 -496 270 -617 530 -67 143 -85 227
-85 411 0 146 3 168 28 254 148 495 617 790 1117 700z m3832 -3173 c577 -111
925 -708 738 -1266 -113 -339 -413 -594 -764 -650 -109 -18 -321 -8 -416 20
-363 105 -623 388 -701 765 -7 33 -13 112 -13 175 0 165 31 292 104 440 135
270 409 472 710 523 61 10 274 6 342 -7z m-2472 -16 c166 -21 314 -74 439
-160 442 -300 562 -899 269 -1345 -127 -194 -337 -344 -571 -408 -70 -19 -106
-22 -247 -21 -150 0 -173 3 -255 28 -49 15 -95 32 -102 38 -10 8 -13 190 -13
904 0 841 1 894 18 903 32 16 166 50 237 60 99 12 130 12 225 1z m4845 -35
c422 -68 736 -383 810 -809 19 -111 19 -186 0 -301 -33 -202 -115 -370 -251
-514 -91 -97 -170 -155 -289 -212 -153 -73 -241 -93 -415 -93 -156 -1 -232 12
-360 62 -290 114 -508 360 -592 670 -29 107 -31 343 -4 452 44 176 122 322
240 447 89 95 167 154 271 206 192 95 386 126 590 92z"/>
<path d="M1915 9671 c-48 -22 -79 -54 -100 -103 -13 -33 -15 -335 -15 -2865 0
-2740 1 -2829 19 -2869 10 -23 34 -53 53 -67 33 -26 115 -51 140 -43 7 2 25 7
40 10 30 7 92 57 111 90 9 16 13 383 17 1571 l5 1550 65 6 c36 4 220 9 410 13
190 3 424 9 520 11 96 3 342 10 547 15 213 6 384 14 400 21 64 24 123 109 123
179 0 79 -74 172 -146 186 -21 4 -247 2 -503 -5 -789 -19 -1130 -26 -1276 -26
l-140 0 0 975 0 975 2340 5 c1956 4 2344 7 2365 19 159 87 148 302 -19 359
-26 9 -634 12 -2475 12 -2352 0 -2442 -1 -2481 -19z"/>
</g>
</svg>
