<?xml version="1.0" encoding="iso-8859-1"?>
<!-- Generator: Adobe Illustrator 16.0.0, SVG Export Plug-In . SVG Version: 6.00 Build 0)  -->
<!DOCTYPE svg PUBLIC "-//W3C//DTD SVG 1.1//EN" "http://www.w3.org/Graphics/SVG/1.1/DTD/svg11.dtd">
<svg version="1.1" id="Capa_1" xmlns="http://www.w3.org/2000/svg" xmlns:xlink="http://www.w3.org/1999/xlink" x="0px" y="0px"
	 width="66.08px" height="66.08px" viewBox="0 0 66.08 66.08" style="enable-background:new 0 0 66.08 66.08;" xml:space="preserve"
	>
<g>
	<path d="M29.327,54.861l-4.562-3.357l1.404-7.167l0.035-0.051l2.106,1.552v0.004l1.252,0.924h0.002l2.86,2.105l0,0l1.252,0.927
		v-0.005l2.106,1.554l-0.034,0.048L29.327,54.861z M56.493,3.149l-6.059,8.227l9.585,7.056l6.061-8.227L56.493,3.149z
		 M46.652,29.548l9.083-12.337l-2.86-2.108l-6.223,8.449l-2.959,4.018L30.484,45.511l2.864,2.107l10.348-14.053L46.652,29.548z
		 M24.43,53.189l-0.946,4.82l4.326-2.332L24.43,53.189z M46.652,32.169l-2.959,4.014l-9.095,12.354l2.109,1.554l6.986-9.487v21.104
		H2.957V8.082h0.862v1.817c0,0.817,0.663,1.481,1.479,1.481c0.817,0,1.478-0.664,1.478-1.481V8.082h2.193v1.817
		c0,0.817,0.661,1.481,1.479,1.481s1.478-0.664,1.478-1.481V8.082h2.193v1.817c0,0.817,0.664,1.481,1.479,1.481
		c0.816,0,1.478-0.664,1.478-1.481V8.082h2.193v1.817c0,0.817,0.664,1.481,1.478,1.481c0.818,0,1.479-0.664,1.479-1.481V8.082h2.193
		v1.817c0,0.817,0.664,1.481,1.478,1.481c0.815,0,1.479-0.664,1.479-1.481V8.082h2.193v1.817c0,0.817,0.663,1.481,1.478,1.481
		s1.478-0.664,1.478-1.481V8.082h2.194v1.817c0,0.817,0.661,1.481,1.478,1.481c0.818,0,1.479-0.664,1.479-1.481V8.082h2.194v1.817
		c0,0.817,0.661,1.481,1.478,1.481c0.817,0,1.479-0.664,1.479-1.481V8.082h0.862v12.452L27.123,43.039l2.107,1.549l14.461-19.638
		l2.956-4.018l4.973-6.749l-2.112-1.556l-2.86,3.887V5.125h-3.818V2.894c0-0.816-0.661-1.478-1.479-1.478
		c-0.816,0-1.478,0.662-1.478,1.478v2.231h-2.194V2.894c0-0.816-0.66-1.478-1.479-1.478c-0.817,0-1.478,0.662-1.478,1.478v2.231
		h-2.194V2.894c0-0.816-0.66-1.478-1.478-1.478s-1.478,0.662-1.478,1.478v2.231h-2.193V2.894c0-0.816-0.664-1.478-1.479-1.478
		c-0.817,0-1.478,0.662-1.478,1.478v2.231h-2.193V2.894c0-0.816-0.664-1.478-1.479-1.478c-0.814,0-1.478,0.662-1.478,1.478v2.231
		h-2.193V2.894c0-0.816-0.664-1.478-1.478-1.478c-0.815,0-1.479,0.662-1.479,1.478v2.231h-2.193V2.894
		c0-0.816-0.664-1.478-1.478-1.478c-0.815,0-1.479,0.662-1.479,1.478v2.231H6.776V2.894c0-0.816-0.663-1.478-1.478-1.478
		c-0.816,0-1.479,0.662-1.479,1.478v2.231H0v59.54h46.652V36.585l12.443-16.898l-2.11-1.551L46.652,32.169z M38.44,14.968H7.549
		v3.613H38.44V14.968z M7.549,25.812H38.44v-3.614H7.549V25.812z M7.549,33.042H28.91v-3.615H7.549V33.042z"/>
</g>
<g>
</g>
<g>
</g>
<g>
</g>
<g>
</g>
<g>
</g>
<g>
</g>
<g>
</g>
<g>
</g>
<g>
</g>
<g>
</g>
<g>
</g>
<g>
</g>
<g>
</g>
<g>
</g>
<g>
</g>
</svg>
